<svg fill="white" width="24" height="24" xmlns="http://www.w3.org/2000/svg"><path d="m15.47325,10.73992l3.55,0l0,-2.36667l-3.55,0l-2.36667,0l-3.55,0l0,2.36667l3.55,0l2.36667,0zm-8.28333,8.28333q-0.97625,0 -1.67146,-0.69521t-0.69521,-1.67146l0,-14.2q0,-0.97625 0.69521,-1.67146t1.67146,-0.69521l14.2,0q0.97625,0 1.67146,0.69521t0.69521,1.67146l0,14.2q0,0.97625 -0.69521,1.67146t-1.67146,0.69521l-14.2,0zm0,-2.36667l14.2,0l0,-14.2l-14.2,0l0,14.2zm-4.73333,7.1q-0.97625,0 -1.67146,-0.69521t-0.69521,-1.67146l0,-16.56666l2.36667,0l0,16.56666l16.56666,0l0,2.36667l-16.56666,0zm4.73333,-21.3l0,14.2l0,-14.2z"/></svg>